<svg width="316" height="55" viewBox="0 0 316 55" fill="none" xmlns="http://www.w3.org/2000/svg">
<g clip-path="url(#clip0_64_387)">
<path d="M197.526 8.34277H212.188L204.696 46.8929H197.257L203.455 15.4063H196.179L197.528 8.34277H197.526Z" fill="#D66916"/>
<path d="M215.691 44.7357C213.428 42.7597 212.295 40.0267 212.295 36.541C212.295 35.4631 212.403 34.3304 212.619 33.1445L214.884 21.6066C215.71 17.1854 217.479 13.7342 220.193 11.2545C222.907 8.77476 226.436 7.53418 230.785 7.53418H232.995C236.912 7.53418 240.011 8.51427 242.293 10.473C244.575 12.4332 245.716 15.1547 245.716 18.6418C245.716 19.5413 245.589 20.6912 245.339 22.093L243.129 33.6842C242.267 38.0694 240.479 41.5019 237.765 43.9816C235.052 46.4613 231.503 47.7019 227.119 47.7019H224.909C221.029 47.7019 217.956 46.7132 215.692 44.7372L215.691 44.7357ZM219.842 35.6775C219.842 37.3671 220.318 38.5976 221.271 39.3705C222.222 40.1433 223.705 40.529 225.718 40.529H227.227C229.706 40.529 231.611 39.9548 232.941 38.8034C234.27 37.6535 235.187 35.784 235.69 33.1963L237.847 22.0354C238.027 21.2093 238.116 20.3458 238.116 19.4478C238.116 17.7956 237.64 16.5996 236.687 15.8628C235.735 15.1259 234.234 14.7575 232.187 14.7575H230.732C228.216 14.7575 226.294 15.3231 224.964 16.4557C223.635 17.5883 222.735 19.4478 222.269 22.0354L220.114 33.1963C219.934 34.2023 219.845 35.0299 219.845 35.6761L219.842 35.6775Z" fill="#D66916"/>
<path d="M250.834 44.7357C248.571 42.7597 247.438 40.0267 247.438 36.541C247.438 35.4631 247.546 34.3304 247.762 33.1445L250.027 21.6066C250.853 17.1854 252.622 13.7342 255.336 11.2545C258.049 8.77476 261.579 7.53418 265.928 7.53418H268.138C272.055 7.53418 275.154 8.51427 277.436 10.473C279.718 12.4332 280.859 15.1547 280.859 18.6418C280.859 19.5413 280.732 20.6912 280.482 22.093L278.272 33.6842C277.41 38.0694 275.622 41.5019 272.908 43.9816C270.194 46.4613 266.646 47.7019 262.262 47.7019H260.052C256.172 47.7019 253.098 46.7132 250.835 44.7372L250.834 44.7357ZM254.985 35.6775C254.985 37.3671 255.461 38.5976 256.413 39.3705C257.365 40.1433 258.848 40.529 260.861 40.529H262.37C264.849 40.529 266.754 39.9548 268.084 38.8034C269.413 37.6535 270.33 35.784 270.833 33.1963L272.99 22.0354C273.17 21.2093 273.259 20.3458 273.259 19.4478C273.259 17.7956 272.783 16.5996 271.83 15.8628C270.878 15.1259 269.377 14.7575 267.33 14.7575H265.875C263.359 14.7575 261.436 15.3231 260.107 16.4557C258.777 17.5883 257.878 19.4478 257.412 22.0354L255.257 33.1963C255.077 34.2023 254.988 35.0299 254.988 35.6761L254.985 35.6775Z" fill="#D66916"/>
<path d="M285.977 44.7357C283.713 42.7597 282.581 40.0267 282.581 36.541C282.581 35.4631 282.689 34.3304 282.905 33.1445L285.169 21.6066C285.995 17.1854 287.765 13.7342 290.479 11.2545C293.192 8.77476 296.722 7.53418 301.071 7.53418H303.281C307.198 7.53418 310.297 8.51427 312.579 10.473C314.861 12.4332 316.002 15.1547 316.002 18.6418C316.002 19.5413 315.875 20.6912 315.625 22.093L313.415 33.6842C312.553 38.0694 310.764 41.5019 308.051 43.9816C305.337 46.4613 301.789 47.7019 297.405 47.7019H295.195C291.315 47.7019 288.241 46.7132 285.978 44.7372L285.977 44.7357ZM290.128 35.6775C290.128 37.3671 290.604 38.5976 291.556 39.3705C292.507 40.1433 293.991 40.529 296.004 40.529H297.513C299.992 40.529 301.897 39.9548 303.226 38.8034C304.556 37.6535 305.472 35.784 305.976 33.1963L308.133 22.0354C308.313 21.2093 308.402 20.3458 308.402 19.4478C308.402 17.7956 307.926 16.5996 306.973 15.8628C306.021 15.1259 304.52 14.7575 302.473 14.7575H301.018C298.501 14.7575 296.579 15.3231 295.25 16.4557C293.92 17.5883 293.021 19.4478 292.555 22.0354L290.4 33.1963C290.22 34.2023 290.13 35.0299 290.13 35.6761L290.128 35.6775Z" fill="#D66916"/>
<path d="M76.1199 0H82.9513L88.308 7.68095H80.6291L79.1558 4.4658L76.3875 7.68095H67.772L76.1199 0Z" fill="url(#paint0_linear_64_387)"/>
<path d="M67.8856 11.708H90.8317L89.4475 19.0766H75.0279L74.0451 24.1224H87.0361L85.652 31.2666H72.661L71.6337 36.4016H86.2764L84.8477 43.8148H61.634L67.8842 11.708H67.8856Z" fill="url(#paint1_linear_64_387)"/>
<path d="M99.4471 27.2484L92.4387 11.708H102.171L105.92 20.8627L113.062 11.708H123.911L110.831 27.4714L118.062 43.8148H108.419L104.447 34.214L96.6342 43.8148H85.6519L99.4471 27.2484Z" fill="url(#paint2_linear_64_387)"/>
<path d="M125.518 11.708H134.134L127.884 43.8148H119.268L125.518 11.708Z" fill="url(#paint3_linear_64_387)"/>
<path d="M144.58 19.5674H135.517L137.035 11.708H163.776L162.258 19.5674H153.24L148.508 43.8148H139.847L144.58 19.5674Z" fill="url(#paint4_linear_64_387)"/>
<path d="M166.254 43.167C164.691 42.2891 163.478 41.0615 162.615 39.4827C161.752 37.9053 161.32 36.0747 161.32 33.9907C161.32 32.979 161.424 31.9672 161.632 30.9541L163.016 23.8545C163.79 19.9256 165.426 16.8068 167.927 14.4998C170.428 12.1928 173.478 11.0386 177.079 11.0386H182.302C184.386 11.0386 186.208 11.4703 187.771 12.3338C189.334 13.1974 190.546 14.425 191.41 16.0182C192.273 17.6113 192.705 19.4348 192.705 21.4885C192.705 22.5003 192.6 23.5135 192.392 24.5252L191.008 31.6247C190.234 35.5537 188.598 38.6796 186.098 41.0025C183.597 43.3239 180.547 44.4853 176.945 44.4853H171.723C169.639 44.4853 167.816 44.0463 166.254 43.1684V43.167ZM170.071 33.1416C170.071 34.362 170.39 35.2558 171.031 35.8214C171.671 36.387 172.675 36.6691 174.043 36.6691H176.498C178.223 36.6691 179.555 36.2229 180.494 35.3292C181.432 34.4354 182.094 32.9919 182.481 30.9972L183.731 24.4777C183.909 23.6746 183.998 22.945 183.998 22.2901C183.998 21.0999 183.67 20.2292 183.016 19.678C182.361 19.1268 181.348 18.8519 179.98 18.8519H177.524C175.797 18.8519 174.466 19.2909 173.528 20.1688C172.59 21.0467 171.928 22.4844 171.541 24.4777L170.291 30.9972C170.141 31.6521 170.068 32.3673 170.068 33.1402L170.071 33.1416Z" fill="url(#paint5_linear_64_387)"/>
<path d="M23.923 48.9844C23.3547 49.5428 22.6151 49.822 21.8756 49.822C21.136 49.822 20.3778 49.5356 19.808 48.9657L2.96969 32.1229C1.82728 30.9802 1.82728 29.128 2.96969 27.9867L10.8889 20.0654C11.437 19.5171 12.1809 19.2091 12.9564 19.2091C13.7319 19.2091 14.4758 19.5171 15.024 20.0654L21.8727 26.9159L39.9901 8.74186C35.8636 5.8491 30.8393 4.14941 25.4179 4.14941C11.3809 4.14941 0 15.532 0 29.5741C0 43.6163 11.3809 54.9988 25.4179 54.9988C39.4549 54.9988 50.8358 43.6148 50.8358 29.5741C50.8358 27.4196 50.5667 25.3285 50.0631 23.3323L23.923 48.9844Z" fill="#D66916"/>
<path d="M21.8757 31.0549L12.9565 22.132L5.03735 30.0533L21.8757 46.8961L54.8458 14.5417L50.6949 2.14453L21.8757 31.0549Z" fill="url(#paint6_linear_64_387)"/>
<path d="M60.3736 0.522461L57.9348 0.654866L59.1448 4.28594L60.3736 0.522461Z" fill="url(#paint7_linear_64_387)"/>
<path d="M57.4501 0.680664L51.8848 0.980015L56.2228 13.2347L58.9004 5.03277L57.4501 0.680664Z" fill="url(#paint8_linear_64_387)"/>
</g>
<defs>
<linearGradient id="paint0_linear_64_387" x1="67.772" y1="3.83975" x2="88.308" y2="3.83975" gradientUnits="userSpaceOnUse">
<stop stop-color="#2163A1"/>
<stop offset="1" stop-color="#0F2E4D"/>
</linearGradient>
<linearGradient id="paint1_linear_64_387" x1="204.076" y1="32.6611" x2="43.0273" y2="26.4918" gradientUnits="userSpaceOnUse">
<stop stop-color="#2163A1"/>
<stop offset="1" stop-color="#0F2E4D"/>
</linearGradient>
<linearGradient id="paint2_linear_64_387" x1="204.117" y1="31.5688" x2="43.0703" y2="25.3994" gradientUnits="userSpaceOnUse">
<stop stop-color="#2163A1"/>
<stop offset="1" stop-color="#0F2E4D"/>
</linearGradient>
<linearGradient id="paint3_linear_64_387" x1="204.15" y1="30.7298" x2="43.102" y2="24.5604" gradientUnits="userSpaceOnUse">
<stop stop-color="#2163A1"/>
<stop offset="1" stop-color="#0F2E4D"/>
</linearGradient>
<linearGradient id="paint4_linear_64_387" x1="204.186" y1="29.7684" x2="43.1381" y2="23.599" gradientUnits="userSpaceOnUse">
<stop stop-color="#2163A1"/>
<stop offset="1" stop-color="#0F2E4D"/>
</linearGradient>
<linearGradient id="paint5_linear_64_387" x1="204.224" y1="28.8039" x2="43.1755" y2="22.6345" gradientUnits="userSpaceOnUse">
<stop stop-color="#2163A1"/>
<stop offset="1" stop-color="#0F2E4D"/>
</linearGradient>
<linearGradient id="paint6_linear_64_387" x1="5.03735" y1="24.521" x2="54.8458" y2="24.521" gradientUnits="userSpaceOnUse">
<stop stop-color="#2163A1"/>
<stop offset="1" stop-color="#0F2E4D"/>
</linearGradient>
<linearGradient id="paint7_linear_64_387" x1="62.2958" y1="0.264846" x2="57.4147" y2="3.12913" gradientUnits="userSpaceOnUse">
<stop stop-color="#2163A1"/>
<stop offset="1" stop-color="#0F2E4D"/>
</linearGradient>
<linearGradient id="paint8_linear_64_387" x1="63.2427" y1="1.71256" x2="51.0371" y2="8.87399" gradientUnits="userSpaceOnUse">
<stop stop-color="#2163A1"/>
<stop offset="1" stop-color="#0F2E4D"/>
</linearGradient>
<clipPath id="clip0_64_387">
<rect width="316" height="55" fill="white"/>
</clipPath>
</defs>
</svg>
